<svg version="1.2" xmlns="http://www.w3.org/2000/svg" viewBox="0 0 1280 720" width="1280" height="720">
	<title>New Project</title>
	<style>
		.s0 { fill: #47e194 } 
		.s1 { fill: none;stroke: #47e194;stroke-width: 5.7 } 
	</style>
	<path id="Layer 1" class="s0" d="m-92 676c0 0 137-148.3 303-123 166 25.3 189 117.2 309 96 120-21.2 208-100.3 277-132 69-31.7 151.5-30.2 202.5-4.7 78.7 39.4 98.8 49.1 181.5-1.5 54-33 88.5-56.6 147-53.8 58.5 2.8 68 336 68 336l-1479-2z"/>
	<path id="Layer 2" class="s1" d="m-92 668.2c0 0 137-148.3 303-123 166 25.4 189 117.2 309 96 120-21.1 208-100.3 277-132 69-31.6 151.5-30.1 202.5-4.6 78.7 39.4 98.8 49 181.5-1.5 54-33 88.5-56.7 147-53.9 58.5 2.9 68 336 68 336l-1479-2z"/>
</svg>